<svg xmlns="http://www.w3.org/2000/svg" id="artboard-svg" width="63" height="63" viewBox="0 0 63 63" style="width:562.5px"><defs><style>.cls-1, .cls-14, .cls-21, .cls-7, .cls-9 { fill: #fff; } .cls-1 { stroke: #707070; } .cls-2 { clip-path: url(#clip-_43_Profile); } .cls-3 { clip-path: url(#clip-path); } .cls-4 { fill: none; } .cls-5 { clip-path: url(#clip-path-2); } .cls-6 { fill: #44a3ff; stroke: #fff; } .cls-14, .cls-6 { stroke-width: 4px; } .cls-7 { font-size: 24px; font-family: NunitoSans-ExtraBold, Nunito Sans; } .cls-15, .cls-7 { font-weight: 800; } .cls-10, .cls-18, .cls-19, .cls-8 { fill: #111; } .cls-8 { font-size: 80px; font-family: Avenir-Light, Avenir; font-weight: 300; } .cls-9 { stroke: rgba(0,0,0,0); } .cls-10 { font-size: 45px; } .cls-10, .cls-18 { font-family: Avenir-Medium, Avenir; font-weight: 500; } .cls-11 { fill: url(#linear-gradient); } .cls-12 { opacity: 0.5; } .cls-13, .cls-17 { fill: red; } .cls-14 { stroke: #002bff; } .cls-15 { fill: #002bff; font-size: 20px; font-family: Avenir-Heavy, Avenir; } .cls-16 { fill: #ffdfdf; stroke: red; stroke-width: 2px; } .cls-17 { font-size: 37px; } .cls-17, .cls-19 { font-family: Avenir-Roman, Avenir; } .cls-18, .cls-19 { font-size: 35px; } .cls-18 { opacity: 0.6; } .cls-20 { stroke: none; } .cls-22 { filter: url(#Rectangle-3); } .cls-23 { filter: url(#Rectangle-2); } .cls-24 { filter: url(#Rectangle); }</style><clipPath id="clip-path"><path id="Rectangle_118" d="M0 0h75v75H0z" class="cls-1" data-name="Rectangle 118" transform="translate(70 160)"/></clipPath><clipPath id="clip-path-2"><path id="Rectangle_123" d="M0 0h60v60H0z" class="cls-1" data-name="Rectangle 123" transform="translate(980 179.624)"/></clipPath><filter id="Rectangle" width="1091" height="281" x="17" y="718" filterUnits="userSpaceOnUse"><feOffset dy="10"/><feGaussianBlur result="blur" stdDeviation="17.5"/><feFlood flood-color="#00195c" flood-opacity=".071"/><feComposite in2="blur" operator="in"/><feComposite in="SourceGraphic"/></filter><linearGradient id="linear-gradient" x1=".5" x2=".5" y2="1" gradientUnits="objectBoundingBox"><stop offset="0" stop-color="#44a3ff"/><stop offset="1" stop-color="#002bff"/></linearGradient><filter id="Rectangle-2" width="1091" height="281" x="17" y="1027" filterUnits="userSpaceOnUse"><feOffset dy="10"/><feGaussianBlur result="blur-2" stdDeviation="17.5"/><feFlood flood-color="#00195c" flood-opacity=".071"/><feComposite in2="blur-2" operator="in"/><feComposite in="SourceGraphic"/></filter><filter id="Rectangle-3" width="1091" height="281" x="17" y="409" filterUnits="userSpaceOnUse"><feOffset dy="10"/><feGaussianBlur result="blur-3" stdDeviation="17.5"/><feFlood flood-color="#00195c" flood-opacity=".071"/><feComposite in2="blur-3" operator="in"/><feComposite in="SourceGraphic"/></filter><clipPath id="clip-_43_Profile"><path d="M0 0h1125v2436H0z"/></clipPath></defs><g transform="translate(-129 -817)"><g id="_43_Profile" class="cls-2" data-name="43_Profile"><g id="Group_822" data-name="Group 822" transform="translate(0 94)"><g id="bank-line" transform="translate(130 724)"><path id="Path_1518" d="M0 0h61v61H0z" class="cls-4" data-name="Path 1518"/><path id="Path_1519" d="M2 47.75h50.833v5.083H2zm5.083-20.333h5.083v17.791H7.083zm12.708 0h5.083v17.791h-5.082zm10.167 0h5.083v17.791h-5.083zm12.708 0h5.084v17.791h-5.083zM2 14.708L27.417 2l25.416 12.708v10.167H2zm5.083 3.142v1.942H47.75V17.85L27.417 7.683zm20.333-.6a2.542 2.542 0 1 1 2.542-2.542 2.542 2.542 0 0 1-2.541 2.542z" class="cls-11" data-name="Path 1519" transform="translate(3.083 3.083)"/></g></g></g></g></svg>