<svg xmlns="http://www.w3.org/2000/svg" id="artboard-svg" width="78" height="75" viewBox="0 0 78 75"><defs><style>.cls-1, .cls-15, .cls-26, .cls-6, .cls-8 { fill: #fff; } .cls-1, .cls-2 { stroke: #707070; } .cls-12, .cls-2, .cls-23 { fill: #878787; } .cls-3 { clip-path: url(#clip-_6_Add_Google_Mobile_Verification_); } .cls-11, .cls-13, .cls-16, .cls-4 { fill: #111; } .cls-12, .cls-16, .cls-4 { font-size: 40px; } .cls-11, .cls-4 { font-family: Avenir-Light, Avenir; font-weight: 300; } .cls-5 { fill: url(#linear-gradient); } .cls-6 { font-size: 45px; font-family: Avenir-Medium, Avenir; font-weight: 500; } .cls-7 { fill: #44a3ff; } .cls-8 { stroke: #fff; stroke-width: 20px; } .cls-9 { stroke: #000; } .cls-10, .cls-9 { stroke-width: 4px; } .cls-10 { stroke: #44a3ff; } .cls-11 { font-size: 90px; } .cls-12, .cls-16 { font-family: Avenir-Roman, Avenir; } .cls-14, .cls-25 { fill: none; } .cls-14, .cls-15 { stroke: #c1c1c1; stroke-width: 2px; } .cls-15 { opacity: 0.5; } .cls-17 { clip-path: url(#clip-path); } .cls-18 { fill: #0ed678; } .cls-19 { fill: #04eb84; } .cls-20 { fill: #f7f0eb; } .cls-20, .cls-21 { stroke: #fffbf5; stroke-width: 0.75px; } .cls-21 { fill: #fffbf5; } .cls-22 { clip-path: url(#clip-path-2); } .cls-24 { stroke: none; }</style><linearGradient id="linear-gradient" x1=".5" x2=".5" y1="-.497" y2="2.341" gradientUnits="objectBoundingBox"><stop offset="0" stop-color="#44a3ff"/><stop offset="1" stop-color="#002bff"/></linearGradient><clipPath id="clip-path"><path id="Rectangle_434" d="M0 0h75v75H0z" class="cls-1" data-name="Rectangle 434" transform="translate(119.936 443.936)"/></clipPath><clipPath id="clip-path-2"><path id="Rectangle_435" d="M0 0h30v30H0z" class="cls-2" data-name="Rectangle 435" transform="translate(985 456)"/></clipPath><clipPath id="clip-_6_Add_Google_Mobile_Verification_"><path d="M0 0h1125v2407H0z"/></clipPath></defs><g transform="translate(-123 -320)"><g id="_6_Add_Google_Mobile_Verification_" class="cls-3" data-name="6_Add Google (Mobile Verification)"><g id="Mask_Group_65" class="cls-17" data-name="Mask Group 65" transform="translate(3.064 -124.936)"><g id="check_1_" data-name="check (1)" transform="translate(119.989 445.81)"><g id="Group_618" data-name="Group 618"><path id="Path_1671" d="M65.362 36.963l-8.479-9.413 1.327-12.6-12.4-2.624-6.321-10.988-11.574 5.173-1.562 30.452 1.562 30.452 11.574 5.173L45.813 61.6l12.4-2.625-1.327-12.6z" class="cls-18" data-name="Path 1671" transform="translate(9.532 -1.338)"/><path id="Path_1672" d="M25.872 1.338l-6.324 10.985-12.4 2.625 1.327 12.6L0 36.963l8.478 9.413-1.327 12.6 12.4 2.625 6.324 10.986 11.574-5.173V6.511z" class="cls-19" data-name="Path 1672" transform="translate(0 -1.338)"/></g><g id="Group_619" data-name="Group 619" transform="translate(21.287 24.5)"><path id="Path_1673" d="M43.613 22.256l-3.277-2.926-12.421 13.916-1.562 3.454 1.562 3.14z" class="cls-20" data-name="Path 1673" transform="translate(-11.755 -19.33)"/><path id="Path_1674" d="M18.739 25.07l-3.107 3.107 13.062 13.062 3.1-3.471v-6.6l-3.28 3.674z" class="cls-21" data-name="Path 1674" transform="translate(-15.633 -17.254)"/></g></g></g></g></g></svg>