<svg xmlns="http://www.w3.org/2000/svg" width="168.419" height="139.82" viewBox="0 0 168.419 139.82">
  <g id="Group_420" data-name="Group 420" transform="translate(-661 -418)">
    <path id="Path_1510" data-name="Path 1510" d="M158.764,146.276H31.655A20.614,20.614,0,0,1,11,125.621V47.767A4.681,4.681,0,0,1,15.767,43a4.681,4.681,0,0,1,4.767,4.767v77.854a11.054,11.054,0,0,0,11.122,11.122H158.764c6.2,0,11.122-5.084,11.122-9.533V47.767a4.767,4.767,0,0,1,9.533,0V127.21C179.419,137.378,169.727,146.276,158.764,146.276Z" transform="translate(650 411.544)"/>
    <path id="Path_1511" data-name="Path 1511" d="M86.384,81.315A80.727,80.727,0,0,1,27.279,56.052a4.72,4.72,0,1,1,6.832-6.514A71.86,71.86,0,0,0,86.225,71.782,71.6,71.6,0,0,0,138.34,49.538a4.72,4.72,0,1,1,6.832,6.514A79.511,79.511,0,0,1,86.384,81.315Z" transform="translate(658.825 414.539)" fill="#44a3ff"/>
    <g id="Group_362" data-name="Group 362" transform="translate(661 418)">
      <path id="Path_1512" data-name="Path 1512" d="M174.652,45.422a4.681,4.681,0,0,1-4.767-4.767,11.054,11.054,0,0,0-11.122-11.122H31.655A11.054,11.054,0,0,0,20.533,40.655a4.681,4.681,0,0,1-4.767,4.767A4.681,4.681,0,0,1,11,40.655,20.614,20.614,0,0,1,31.655,20H158.764a20.614,20.614,0,0,1,20.655,20.655A4.681,4.681,0,0,1,174.652,45.422Z" transform="translate(-11 -20)"/>
    </g>
  </g>
</svg>
