<svg xmlns="http://www.w3.org/2000/svg" width="206.96" height="178.199" viewBox="0 0 206.96 178.199">
  <g id="Group_412" data-name="Group 412" transform="translate(-70 -437)">
    <path id="Path_1510" data-name="Path 1510" d="M158.764,146.276H31.655A20.614,20.614,0,0,1,11,125.621V47.767A4.681,4.681,0,0,1,15.767,43a4.681,4.681,0,0,1,4.767,4.767v77.854a11.054,11.054,0,0,0,11.122,11.122H158.764c6.2,0,11.122-5.084,11.122-9.533V47.767a4.767,4.767,0,0,1,9.533,0V127.21C179.419,137.378,169.727,146.276,158.764,146.276Z" transform="translate(59 430.544)"/>
    <path id="Path_1511" data-name="Path 1511" d="M86.384,81.315A80.727,80.727,0,0,1,27.279,56.052a4.72,4.72,0,1,1,6.832-6.514A71.86,71.86,0,0,0,86.225,71.782,71.6,71.6,0,0,0,138.34,49.538a4.72,4.72,0,1,1,6.832,6.514A79.511,79.511,0,0,1,86.384,81.315Z" transform="translate(67.825 433.539)" fill="#44a3ff"/>
    <g id="Group_362" data-name="Group 362" transform="translate(70 437)">
      <path id="Path_1512" data-name="Path 1512" d="M174.652,45.422a4.681,4.681,0,0,1-4.767-4.767,11.054,11.054,0,0,0-11.122-11.122H31.655A11.054,11.054,0,0,0,20.533,40.655a4.681,4.681,0,0,1-4.767,4.767A4.681,4.681,0,0,1,11,40.655,20.614,20.614,0,0,1,31.655,20H158.764a20.614,20.614,0,0,1,20.655,20.655A4.681,4.681,0,0,1,174.652,45.422Z" transform="translate(-11 -20)"/>
    </g>
    <g id="Group_409" data-name="Group 409" transform="translate(-237 -9)">
      <g id="Ellipse_78" data-name="Ellipse 78" transform="translate(426 535)" fill="#fff" stroke="#fff" stroke-width="20">
        <ellipse cx="43.98" cy="44.599" rx="43.98" ry="44.599" stroke="none"/>
        <ellipse cx="43.98" cy="44.599" rx="33.98" ry="34.599" fill="none"/>
      </g>
      <path id="Subtraction_2" data-name="Subtraction 2" d="M37.166,74.332A37.175,37.175,0,0,1,22.709,2.924a37.155,37.155,0,0,1,40.73,60.515A37.054,37.054,0,0,1,37.166,74.332Zm0-70.487A33.321,33.321,0,1,0,70.487,37.166,33.359,33.359,0,0,0,37.166,3.845Z" transform="translate(432.5 541.5)" stroke="#000" stroke-width="4"/>
      <g id="tick" transform="translate(457 570)">
        <g id="Group_369" data-name="Group 369" transform="translate(0 0)">
          <path id="Path_1513" data-name="Path 1513" d="M24.528,68.362a1.245,1.245,0,0,0-1.76,0L7.856,83.274,2.124,77.542A1.245,1.245,0,0,0,.364,79.3l6.612,6.612a1.245,1.245,0,0,0,1.76,0L24.528,70.122A1.245,1.245,0,0,0,24.528,68.362Z" transform="translate(0 -67.997)" stroke="#44a3ff" stroke-width="4"/>
        </g>
      </g>
    </g>
  </g>
</svg>
