<svg xmlns="http://www.w3.org/2000/svg" width="139.516" height="175.347" viewBox="0 0 139.516 175.347">
  <g id="Group_396" data-name="Group 396" transform="translate(-66 -427.837)">
    <path id="icons8-padlock" d="M89.663,9c-.7-.014-1.407-.013-2.115.006-23.737.776-42.2,20.789-42.2,44.371v33.2H33.4c-7.137,0-13.5,5.276-14.275,12.257a14.027,14.027,0,0,0,10.706,15.2v11.327a58.95,58.95,0,0,0,60.352,58.956c32.115-.776,57.559-27.925,57.559-60.04V114.2A13.891,13.891,0,0,0,158.451,98.99c-.776-7.137-7.138-12.257-14.275-12.257H54.658V53.222c0-18.462,14.272-34.287,32.89-34.908a34.243,34.243,0,0,1,35.22,30.1,4.687,4.687,0,0,0,9.309-1.088A43.858,43.858,0,0,0,89.663,9ZM32.937,95.887H144.643a4.654,4.654,0,1,1,0,9.309H32.937a4.654,4.654,0,1,1,0-9.309Zm6.206,18.618h99.294v10.86a49.647,49.647,0,0,1-99.294,0ZM88.79,133.123a4.571,4.571,0,0,0-4.654,4.654v9.309a4.654,4.654,0,1,0,9.309,0v-9.309A4.571,4.571,0,0,0,88.79,133.123Z" transform="translate(46.953 418.847)" fill="#111"/>
    <rect id="Rectangle_364" data-name="Rectangle 364" width="23.661" height="12.741" rx="6.37" transform="translate(141.837 548.16) rotate(90)" fill="#44a3ff"/>
  </g>
</svg>
