<svg xmlns="http://www.w3.org/2000/svg" width="107.006" height="172.856" viewBox="0 0 107.006 172.856">
  <g id="Group_416" data-name="Group 416" transform="translate(-70 -418)">
    <path id="icons8-iphone-x" d="M132.006,156.021V18.834A17.8,17.8,0,0,0,114.172,1H42.834A17.8,17.8,0,0,0,25,18.834V156.021a17.8,17.8,0,0,0,17.834,17.834h71.337A17.8,17.8,0,0,0,132.006,156.021Zm-98.775,0V18.834a9.544,9.544,0,0,1,9.6-9.6H53.809v4.116a4.042,4.042,0,0,0,4.116,4.116H99.081a4.042,4.042,0,0,0,4.116-4.116V9.231h10.975a9.544,9.544,0,0,1,9.6,9.6V156.021a9.544,9.544,0,0,1-9.6,9.6H42.834A9.544,9.544,0,0,1,33.231,156.021Z" transform="translate(45 417)"/>
    <rect id="Rectangle_363" data-name="Rectangle 363" width="21.355" height="10.576" rx="5.288" transform="translate(113 558.724)" fill="#44a3ff"/>
  </g>
</svg>
