<svg xmlns="http://www.w3.org/2000/svg" id="artboard-svg" width="63" height="63" viewBox="0 0 63 63" style="width:562.5px"><defs><style>.cls-1, .cls-14, .cls-21, .cls-7, .cls-9 { fill: #fff; } .cls-1 { stroke: #707070; } .cls-2 { clip-path: url(#clip-_43_Profile); } .cls-3 { clip-path: url(#clip-path); } .cls-4 { fill: none; } .cls-5 { clip-path: url(#clip-path-2); } .cls-6 { fill: #44a3ff; stroke: #fff; } .cls-14, .cls-6 { stroke-width: 4px; } .cls-7 { font-size: 24px; font-family: NunitoSans-ExtraBold, Nunito Sans; } .cls-15, .cls-7 { font-weight: 800; } .cls-10, .cls-18, .cls-19, .cls-8 { fill: #111; } .cls-8 { font-size: 80px; font-family: Avenir-Light, Avenir; font-weight: 300; } .cls-9 { stroke: rgba(0,0,0,0); } .cls-10 { font-size: 45px; } .cls-10, .cls-18 { font-family: Avenir-Medium, Avenir; font-weight: 500; } .cls-11 { fill: url(#linear-gradient); } .cls-12 { opacity: 0.5; } .cls-13, .cls-17 { fill: red; } .cls-14 { stroke: #002bff; } .cls-15 { fill: #002bff; font-size: 20px; font-family: Avenir-Heavy, Avenir; } .cls-16 { fill: #ffdfdf; stroke: red; stroke-width: 2px; } .cls-17 { font-size: 37px; } .cls-17, .cls-19 { font-family: Avenir-Roman, Avenir; } .cls-18, .cls-19 { font-size: 35px; } .cls-18 { opacity: 0.6; } .cls-20 { stroke: none; } .cls-22 { filter: url(#Rectangle-3); } .cls-23 { filter: url(#Rectangle-2); } .cls-24 { filter: url(#Rectangle); }</style><clipPath id="clip-path"><path id="Rectangle_118" d="M0 0h75v75H0z" class="cls-1" data-name="Rectangle 118" transform="translate(70 160)"/></clipPath><clipPath id="clip-path-2"><path id="Rectangle_123" d="M0 0h60v60H0z" class="cls-1" data-name="Rectangle 123" transform="translate(980 179.624)"/></clipPath><filter id="Rectangle" width="1091" height="281" x="17" y="718" filterUnits="userSpaceOnUse"><feOffset dy="10"/><feGaussianBlur result="blur" stdDeviation="17.5"/><feFlood flood-color="#00195c" flood-opacity=".071"/><feComposite in2="blur" operator="in"/><feComposite in="SourceGraphic"/></filter><linearGradient id="linear-gradient" x1=".5" x2=".5" y2="1" gradientUnits="objectBoundingBox"><stop offset="0" stop-color="#44a3ff"/><stop offset="1" stop-color="#002bff"/></linearGradient><filter id="Rectangle-2" width="1091" height="281" x="17" y="1027" filterUnits="userSpaceOnUse"><feOffset dy="10"/><feGaussianBlur result="blur-2" stdDeviation="17.5"/><feFlood flood-color="#00195c" flood-opacity=".071"/><feComposite in2="blur-2" operator="in"/><feComposite in="SourceGraphic"/></filter><filter id="Rectangle-3" width="1091" height="281" x="17" y="409" filterUnits="userSpaceOnUse"><feOffset dy="10"/><feGaussianBlur result="blur-3" stdDeviation="17.5"/><feFlood flood-color="#00195c" flood-opacity=".071"/><feComposite in2="blur-3" operator="in"/><feComposite in="SourceGraphic"/></filter><clipPath id="clip-_43_Profile"><path d="M0 0h1125v2436H0z"/></clipPath></defs><g transform="translate(-133 -1126)"><g id="_43_Profile" class="cls-2" data-name="43_Profile"><g id="Group_821" data-name="Group 821" transform="translate(0 136)"><g id="user-3-line_4_" data-name="user-3-line (4)" transform="translate(134 991)"><path id="Path_1520" d="M0 0h61v61H0z" class="cls-4" data-name="Path 1520"/><path id="Path_1521" d="M44.667 54.375h-5.084v-5.083a7.625 7.625 0 0 0-7.625-7.625h-15.25a7.625 7.625 0 0 0-7.625 7.625v5.083H4v-5.083a12.708 12.708 0 0 1 12.708-12.709h15.25a12.708 12.708 0 0 1 12.709 12.709zM24.333 31.5a15.25 15.25 0 1 1 15.25-15.25 15.25 15.25 0 0 1-15.25 15.25zm0-5.083A10.167 10.167 0 1 0 14.167 16.25a10.167 10.167 0 0 0 10.166 10.167z" class="cls-11" data-name="Path 1521" transform="translate(6.167 1.542)"/></g></g></g></g></svg>